<?xml version="1.0" encoding="utf-8"?>
<!DOCTYPE svg PUBLIC "-//W3C//DTD SVG 1.1//EN" "http://www.w3.org/Graphics/SVG/1.1/DTD/svg11.dtd">
<svg version="1.1" xmlns="http://www.w3.org/2000/svg" xmlns:xlink="http://www.w3.org/1999/xlink" xmlns:xml="http://www.w3.org/XML/1998/namespace" width="25" height="32" viewBox="0, 0, 404, 532">
  <path d="M182.268 511.67 C36.97 301.031 10 279.413 10 202 C10 95.961 95.961 10 202 10 c106.039 0 192 85.961 192 192 c0 77.413 -26.97 99.031 -172.268 309.67 c-9.535 13.774 -29.93 13.773 -39.464 0 z M202 282 c44.183 0 80 -35.817 80 -80 c0 -44.183 -35.817 -80 -80 -80 c-44.183 0 -80 35.817 -80 80 c0 44.183 35.817 80 80 80 z" id="shape" stroke-width="15" style="fill:#ffffff;stroke:#000000;" />
</svg>